<mxfile host="65bd71144e">
    <diagram id="SpTziikwzBFazjLl0raW" name="Page-1">
        <mxGraphModel dx="1130" dy="470" grid="1" gridSize="10" guides="1" tooltips="1" connect="1" arrows="1" fold="1" page="1" pageScale="1" pageWidth="850" pageHeight="1100" math="0" shadow="0">
            <root>
                <mxCell id="0"/>
                <mxCell id="1" parent="0"/>
                <mxCell id="2" value="&lt;b&gt;afiliado&lt;/b&gt;:&lt;br&gt;_id&lt;br&gt;nombre&lt;br&gt;apellido&lt;br&gt;dni&lt;br&gt;empresa&lt;br&gt;fecha afiliacion" style="rounded=0;whiteSpace=wrap;html=1;" vertex="1" parent="1">
                    <mxGeometry x="660" y="240" width="170" height="100" as="geometry"/>
                </mxCell>
                <mxCell id="5" value="&lt;b&gt;familiar:&lt;/b&gt;&lt;br&gt;nombre&lt;br&gt;apellido&lt;br&gt;dni&lt;br&gt;parentesco" style="rounded=0;whiteSpace=wrap;html=1;" vertex="1" parent="1">
                    <mxGeometry x="675" y="420" width="140" height="80" as="geometry"/>
                </mxCell>
                <mxCell id="6" value="&lt;b&gt;familiares todos:&lt;/b&gt;&lt;br&gt;familiar doc&lt;br&gt;familiar doc&lt;br&gt;familiar doc&lt;br&gt;familiar doc" style="rounded=0;whiteSpace=wrap;html=1;" vertex="1" parent="1">
                    <mxGeometry x="10" y="420" width="150" height="90" as="geometry"/>
                </mxCell>
                <mxCell id="10" value="&lt;b&gt;BASE DE DATOS SINDICATO&lt;/b&gt;" style="shape=parallelogram;perimeter=parallelogramPerimeter;whiteSpace=wrap;html=1;fixedSize=1;" vertex="1" parent="1">
                    <mxGeometry x="270" y="10" width="240" height="20" as="geometry"/>
                </mxCell>
                <mxCell id="11" value="&lt;b&gt;COLECCIONES&lt;/b&gt;" style="shape=process;whiteSpace=wrap;html=1;backgroundOutline=1;" vertex="1" parent="1">
                    <mxGeometry x="20" y="40" width="120" height="60" as="geometry"/>
                </mxCell>
                <mxCell id="12" value="&lt;b&gt;MODELOS&lt;/b&gt;" style="shape=process;whiteSpace=wrap;html=1;backgroundOutline=1;" vertex="1" parent="1">
                    <mxGeometry x="680" y="50" width="120" height="60" as="geometry"/>
                </mxCell>
                <mxCell id="14" value="&lt;b&gt;afiliados todos:&lt;/b&gt;&lt;br&gt;afiliado doc&lt;br&gt;afiliado doc&lt;br&gt;afiliado doc&lt;br&gt;afiliado doc" style="rounded=0;whiteSpace=wrap;html=1;" vertex="1" parent="1">
                    <mxGeometry x="10" y="240" width="140" height="110" as="geometry"/>
                </mxCell>
                <mxCell id="20" value="se busca por DNI de afiliado" style="whiteSpace=wrap;html=1;aspect=fixed;" vertex="1" parent="1">
                    <mxGeometry x="250" y="420" width="80" height="80" as="geometry"/>
                </mxCell>
                <mxCell id="21" value="&lt;b&gt;empresas todas:&lt;br&gt;&lt;/b&gt;empresa doc&lt;br&gt;empresa doc" style="rounded=0;whiteSpace=wrap;html=1;" vertex="1" parent="1">
                    <mxGeometry x="20" y="130" width="120" height="60" as="geometry"/>
                </mxCell>
                <mxCell id="22" value="&lt;b&gt;empresa:&lt;br&gt;&lt;/b&gt;nombre&lt;br&gt;numero&lt;br&gt;direccion" style="rounded=0;whiteSpace=wrap;html=1;" vertex="1" parent="1">
                    <mxGeometry x="685" y="140" width="120" height="60" as="geometry"/>
                </mxCell>
                <mxCell id="23" value="se busca por nombre/numero empresa" style="whiteSpace=wrap;html=1;aspect=fixed;" vertex="1" parent="1">
                    <mxGeometry x="250" y="240" width="110" height="110" as="geometry"/>
                </mxCell>
                <mxCell id="24" value="" style="edgeStyle=none;html=1;" edge="1" parent="1">
                    <mxGeometry relative="1" as="geometry">
                        <mxPoint x="160" y="289.5" as="sourcePoint"/>
                        <mxPoint x="230" y="289.5" as="targetPoint"/>
                    </mxGeometry>
                </mxCell>
                <mxCell id="25" value="" style="edgeStyle=none;html=1;" edge="1" parent="1">
                    <mxGeometry relative="1" as="geometry">
                        <mxPoint x="170" y="464.5" as="sourcePoint"/>
                        <mxPoint x="240" y="464.5" as="targetPoint"/>
                    </mxGeometry>
                </mxCell>
            </root>
        </mxGraphModel>
    </diagram>
</mxfile>